<svg xmlns="http://www.w3.org/2000/svg" width="260" height="260">
  <path fill="none" d="M-1-1h262v262H-1z"/>
  <path d="M83.7.373C37.678.373.37 37.68.37 83.706c0 17.136 5.175 33.052 14.044 46.296 6.287-9.382 14.445-17.446 23.916-23.604-3.437-6.855-5.397-14.51-5.397-22.692 0-28.04 22.732-50.765 50.766-50.765 8.186 0 15.84 1.958 22.69 5.395 6.16-9.466 14.227-17.63 23.61-23.91C116.753 5.552 100.84.377 83.7.377V.373zM130 14.417c9.382 6.287 17.446 14.445 23.604 23.916 6.855-3.437 14.51-5.397 22.692-5.397 28.04 0 50.765 22.73 50.765 50.765 0 8.19-1.954 15.845-5.396 22.695 9.48 6.158 17.63 14.222 23.92 23.605 8.87-13.246 14.045-29.16 14.045-46.298C259.627 37.678 222.32.37 176.293.37c-17.136 0-33.052 5.175-46.296 14.044v.005zm115.585 115.585c-6.287 9.383-14.445 17.447-23.916 23.605 3.435 6.855 5.395 14.51 5.395 22.692 0 28.036-22.73 50.762-50.765 50.762-8.19 0-15.842-1.955-22.692-5.397-6.158 9.48-14.222 17.63-23.605 23.92 13.245 8.87 29.16 14.045 46.297 14.045 46.023 0 83.332-37.31 83.332-83.332 0-17.137-5.175-33.053-14.044-46.298h-.005zM129.998 245.588c-9.383-6.287-17.447-14.445-23.605-23.916-6.855 3.437-14.51 5.397-22.692 5.397-28.036 0-50.762-22.734-50.762-50.768 0-8.188 1.955-15.842 5.392-22.692-9.467-6.157-17.63-14.226-23.91-23.61C5.546 143.248.37 159.163.37 176.3c0 46.023 37.308 83.332 83.333 83.332 17.136 0 33.052-5.175 46.296-14.044h-.004zM45.884 130.002l66.09-66.088s13.214 13.22 0 26.434l-26.44 26.44S59.1 143.218 45.88 130.002h.003z"/>
  <path d="M45.884 130.002l66.09 66.09s13.214-13.22 0-26.435l-26.44-26.44S59.1 116.783 45.88 130.002h.003zm168.226 0l-66.088-66.088s-13.215 13.22 0 26.434l26.44 26.44s26.434 26.43 39.654 13.214h-.005z"/>
  <path d="M214.11 130.002l-66.088 66.09s-13.215-13.22 0-26.435l26.44-26.44s26.434-26.434 39.654-13.215h-.005z"/>
</svg>
